<mxfile host="app.diagrams.net" modified="2021-03-11T05:17:23.095Z" agent="5.0 (Windows NT 10.0; Win64; x64) AppleWebKit/537.36 (KHTML, like Gecko) Chrome/89.0.4389.82 Safari/537.36" etag="lQ3tlEPxZUjB8OFfGmbL" version="14.4.7" type="github">
  <diagram id="5jZouDEvCZgjOH0xdtIj" name="ShoppingDB">
    <mxGraphModel dx="2844" dy="1456" grid="1" gridSize="10" guides="1" tooltips="1" connect="1" arrows="1" fold="1" page="1" pageScale="1" pageWidth="5000" pageHeight="5000" math="0" shadow="0">
      <root>
        <mxCell id="0" />
        <mxCell id="1" parent="0" />
        <mxCell id="92wOmejcZKaFyFq-x9RZ-96" value="회원" style="rounded=0;whiteSpace=wrap;html=1;" parent="1" vertex="1">
          <mxGeometry x="864" y="370" width="120" height="60" as="geometry" />
        </mxCell>
        <mxCell id="92wOmejcZKaFyFq-x9RZ-97" value="이름" style="ellipse;whiteSpace=wrap;html=1;" parent="1" vertex="1">
          <mxGeometry x="774" y="260" width="60" height="40" as="geometry" />
        </mxCell>
        <mxCell id="92wOmejcZKaFyFq-x9RZ-99" value="성별" style="ellipse;whiteSpace=wrap;html=1;" parent="1" vertex="1">
          <mxGeometry x="834" y="260" width="60" height="40" as="geometry" />
        </mxCell>
        <mxCell id="92wOmejcZKaFyFq-x9RZ-100" value="연락처" style="ellipse;whiteSpace=wrap;html=1;" parent="1" vertex="1">
          <mxGeometry x="1014" y="260" width="60" height="40" as="geometry" />
        </mxCell>
        <mxCell id="92wOmejcZKaFyFq-x9RZ-101" value="PW" style="ellipse;whiteSpace=wrap;html=1;" parent="1" vertex="1">
          <mxGeometry x="594" y="260" width="60" height="40" as="geometry" />
        </mxCell>
        <mxCell id="92wOmejcZKaFyFq-x9RZ-102" value="&lt;u&gt;ID&lt;/u&gt;" style="ellipse;whiteSpace=wrap;html=1;" parent="1" vertex="1">
          <mxGeometry x="534" y="260" width="60" height="40" as="geometry" />
        </mxCell>
        <mxCell id="92wOmejcZKaFyFq-x9RZ-103" value="이메일" style="ellipse;whiteSpace=wrap;html=1;" parent="1" vertex="1">
          <mxGeometry x="894" y="260" width="60" height="40" as="geometry" />
        </mxCell>
        <mxCell id="92wOmejcZKaFyFq-x9RZ-104" value="닉네임" style="ellipse;whiteSpace=wrap;html=1;" parent="1" vertex="1">
          <mxGeometry x="1074" y="260" width="60" height="40" as="geometry" />
        </mxCell>
        <mxCell id="92wOmejcZKaFyFq-x9RZ-105" value="가입일" style="ellipse;whiteSpace=wrap;html=1;" parent="1" vertex="1">
          <mxGeometry x="1134" y="260" width="60" height="40" as="geometry" />
        </mxCell>
        <mxCell id="92wOmejcZKaFyFq-x9RZ-106" value="포인트" style="ellipse;whiteSpace=wrap;html=1;" parent="1" vertex="1">
          <mxGeometry x="1194" y="260" width="60" height="40" as="geometry" />
        </mxCell>
        <mxCell id="92wOmejcZKaFyFq-x9RZ-123" value="권한" style="ellipse;whiteSpace=wrap;html=1;fillColor=#dae8fc;strokeColor=#6c8ebf;" parent="1" vertex="1">
          <mxGeometry x="714" y="260" width="60" height="40" as="geometry" />
        </mxCell>
        <mxCell id="92wOmejcZKaFyFq-x9RZ-124" value="회원등급" style="ellipse;whiteSpace=wrap;html=1;fillColor=#dae8fc;strokeColor=#6c8ebf;" parent="1" vertex="1">
          <mxGeometry x="1254" y="260" width="60" height="40" as="geometry" />
        </mxCell>
        <mxCell id="92wOmejcZKaFyFq-x9RZ-128" value="게시글&lt;br&gt;작성" style="rhombus;whiteSpace=wrap;html=1;" parent="1" vertex="1">
          <mxGeometry x="520" y="360" width="80" height="80" as="geometry" />
        </mxCell>
        <mxCell id="92wOmejcZKaFyFq-x9RZ-129" value="게시판" style="rounded=0;whiteSpace=wrap;html=1;" parent="1" vertex="1">
          <mxGeometry x="500" y="900" width="120" height="60" as="geometry" />
        </mxCell>
        <mxCell id="92wOmejcZKaFyFq-x9RZ-131" value="주문" style="rhombus;whiteSpace=wrap;html=1;" parent="1" vertex="1">
          <mxGeometry x="1474" y="360" width="80" height="80" as="geometry" />
        </mxCell>
        <mxCell id="92wOmejcZKaFyFq-x9RZ-132" value="&lt;u&gt;주문번호&lt;/u&gt;" style="ellipse;whiteSpace=wrap;html=1;" parent="1" vertex="1">
          <mxGeometry x="1394" y="260" width="60" height="40" as="geometry" />
        </mxCell>
        <mxCell id="92wOmejcZKaFyFq-x9RZ-133" value="결제금액" style="ellipse;whiteSpace=wrap;html=1;" parent="1" vertex="1">
          <mxGeometry x="1454" y="260" width="60" height="40" as="geometry" />
        </mxCell>
        <mxCell id="92wOmejcZKaFyFq-x9RZ-135" value="주문일자" style="ellipse;whiteSpace=wrap;html=1;" parent="1" vertex="1">
          <mxGeometry x="1514" y="260" width="60" height="40" as="geometry" />
        </mxCell>
        <mxCell id="92wOmejcZKaFyFq-x9RZ-136" value="회원ID" style="ellipse;whiteSpace=wrap;html=1;fillColor=#dae8fc;strokeColor=#6c8ebf;" parent="1" vertex="1">
          <mxGeometry x="1574" y="260" width="60" height="40" as="geometry" />
        </mxCell>
        <mxCell id="92wOmejcZKaFyFq-x9RZ-138" value="상품" style="rounded=0;whiteSpace=wrap;html=1;" parent="1" vertex="1">
          <mxGeometry x="1714" y="370" width="120" height="60" as="geometry" />
        </mxCell>
        <mxCell id="92wOmejcZKaFyFq-x9RZ-139" value="공급" style="rhombus;whiteSpace=wrap;html=1;" parent="1" vertex="1">
          <mxGeometry x="1304" y="890" width="80" height="80" as="geometry" />
        </mxCell>
        <mxCell id="92wOmejcZKaFyFq-x9RZ-140" value="&lt;u&gt;상품번호&lt;/u&gt;" style="ellipse;whiteSpace=wrap;html=1;" parent="1" vertex="1">
          <mxGeometry x="1954" y="240" width="60" height="40" as="geometry" />
        </mxCell>
        <mxCell id="92wOmejcZKaFyFq-x9RZ-141" value="이름" style="ellipse;whiteSpace=wrap;html=1;" parent="1" vertex="1">
          <mxGeometry x="1954" y="280" width="60" height="40" as="geometry" />
        </mxCell>
        <mxCell id="92wOmejcZKaFyFq-x9RZ-142" value="내용" style="ellipse;whiteSpace=wrap;html=1;" parent="1" vertex="1">
          <mxGeometry x="1954" y="320" width="60" height="40" as="geometry" />
        </mxCell>
        <mxCell id="92wOmejcZKaFyFq-x9RZ-143" value="가격" style="ellipse;whiteSpace=wrap;html=1;" parent="1" vertex="1">
          <mxGeometry x="1954" y="360" width="60" height="40" as="geometry" />
        </mxCell>
        <mxCell id="92wOmejcZKaFyFq-x9RZ-144" value="사진" style="ellipse;whiteSpace=wrap;html=1;fillColor=#dae8fc;strokeColor=#6C8EBF;" parent="1" vertex="1">
          <mxGeometry x="1954" y="400" width="60" height="40" as="geometry" />
        </mxCell>
        <mxCell id="92wOmejcZKaFyFq-x9RZ-145" value="카테고리" style="ellipse;whiteSpace=wrap;html=1;fillColor=#dae8fc;strokeColor=#6c8ebf;" parent="1" vertex="1">
          <mxGeometry x="1954" y="440" width="60" height="40" as="geometry" />
        </mxCell>
        <mxCell id="92wOmejcZKaFyFq-x9RZ-146" value="판매자ID" style="ellipse;whiteSpace=wrap;html=1;fillColor=#dae8fc;strokeColor=#6c8ebf;" parent="1" vertex="1">
          <mxGeometry x="1954" y="480" width="60" height="40" as="geometry" />
        </mxCell>
        <mxCell id="92wOmejcZKaFyFq-x9RZ-147" value="공급량" style="ellipse;whiteSpace=wrap;html=1;" parent="1" vertex="1">
          <mxGeometry x="1344" y="1010" width="60" height="40" as="geometry" />
        </mxCell>
        <mxCell id="92wOmejcZKaFyFq-x9RZ-148" value="&lt;u&gt;글번호&lt;/u&gt;" style="ellipse;whiteSpace=wrap;html=1;" parent="1" vertex="1">
          <mxGeometry x="80" y="1010" width="60" height="40" as="geometry" />
        </mxCell>
        <mxCell id="92wOmejcZKaFyFq-x9RZ-149" value="글제목" style="ellipse;whiteSpace=wrap;html=1;" parent="1" vertex="1">
          <mxGeometry x="140" y="1010" width="60" height="40" as="geometry" />
        </mxCell>
        <mxCell id="92wOmejcZKaFyFq-x9RZ-150" value="글내용" style="ellipse;whiteSpace=wrap;html=1;" parent="1" vertex="1">
          <mxGeometry x="200" y="1010" width="60" height="40" as="geometry" />
        </mxCell>
        <mxCell id="92wOmejcZKaFyFq-x9RZ-151" value="작성자ID" style="ellipse;whiteSpace=wrap;html=1;fillColor=#dae8fc;strokeColor=#6c8ebf;" parent="1" vertex="1">
          <mxGeometry x="260" y="1010" width="60" height="40" as="geometry" />
        </mxCell>
        <mxCell id="92wOmejcZKaFyFq-x9RZ-152" value="게시판&lt;br&gt;종류" style="ellipse;whiteSpace=wrap;html=1;fillColor=#dae8fc;strokeColor=#6c8ebf;" parent="1" vertex="1">
          <mxGeometry x="320" y="1010" width="60" height="40" as="geometry" />
        </mxCell>
        <mxCell id="92wOmejcZKaFyFq-x9RZ-153" value="작성일자" style="ellipse;whiteSpace=wrap;html=1;" parent="1" vertex="1">
          <mxGeometry x="380" y="1010" width="60" height="40" as="geometry" />
        </mxCell>
        <mxCell id="92wOmejcZKaFyFq-x9RZ-154" value="상품번호" style="ellipse;whiteSpace=wrap;html=1;fillColor=#dae8fc;strokeColor=#6c8ebf;" parent="1" vertex="1">
          <mxGeometry x="440" y="1010" width="60" height="40" as="geometry" />
        </mxCell>
        <mxCell id="92wOmejcZKaFyFq-x9RZ-155" value="별점" style="ellipse;whiteSpace=wrap;html=1;" parent="1" vertex="1">
          <mxGeometry x="560" y="1010" width="60" height="40" as="geometry" />
        </mxCell>
        <mxCell id="92wOmejcZKaFyFq-x9RZ-156" value="추천수" style="ellipse;whiteSpace=wrap;html=1;" parent="1" vertex="1">
          <mxGeometry x="620" y="1010" width="60" height="40" as="geometry" />
        </mxCell>
        <mxCell id="92wOmejcZKaFyFq-x9RZ-157" value="첨부사진" style="ellipse;whiteSpace=wrap;html=1;" parent="1" vertex="1">
          <mxGeometry x="680" y="1010" width="60" height="40" as="geometry" />
        </mxCell>
        <mxCell id="92wOmejcZKaFyFq-x9RZ-158" value="조회수" style="ellipse;whiteSpace=wrap;html=1;" parent="1" vertex="1">
          <mxGeometry x="740" y="1010" width="60" height="40" as="geometry" />
        </mxCell>
        <mxCell id="92wOmejcZKaFyFq-x9RZ-159" value="문의유형" style="ellipse;whiteSpace=wrap;html=1;" parent="1" vertex="1">
          <mxGeometry x="800" y="1010" width="60" height="40" as="geometry" />
        </mxCell>
        <mxCell id="92wOmejcZKaFyFq-x9RZ-172" value="" style="endArrow=none;html=1;exitX=0.5;exitY=0;exitDx=0;exitDy=0;entryX=0.5;entryY=1;entryDx=0;entryDy=0;" parent="1" source="92wOmejcZKaFyFq-x9RZ-96" target="92wOmejcZKaFyFq-x9RZ-103" edge="1">
          <mxGeometry width="50" height="50" relative="1" as="geometry">
            <mxPoint x="1154" y="600" as="sourcePoint" />
            <mxPoint x="1204" y="550" as="targetPoint" />
          </mxGeometry>
        </mxCell>
        <mxCell id="92wOmejcZKaFyFq-x9RZ-176" value="" style="endArrow=none;html=1;exitX=0;exitY=0.5;exitDx=0;exitDy=0;entryX=1;entryY=0.5;entryDx=0;entryDy=0;" parent="1" source="92wOmejcZKaFyFq-x9RZ-131" target="92wOmejcZKaFyFq-x9RZ-96" edge="1">
          <mxGeometry width="50" height="50" relative="1" as="geometry">
            <mxPoint x="1121" y="399.28999999999996" as="sourcePoint" />
            <mxPoint x="1027" y="399.28999999999996" as="targetPoint" />
          </mxGeometry>
        </mxCell>
        <mxCell id="92wOmejcZKaFyFq-x9RZ-177" value="" style="endArrow=none;html=1;exitX=0;exitY=0.5;exitDx=0;exitDy=0;entryX=1;entryY=0.5;entryDx=0;entryDy=0;" parent="1" source="92wOmejcZKaFyFq-x9RZ-138" target="92wOmejcZKaFyFq-x9RZ-131" edge="1">
          <mxGeometry width="50" height="50" relative="1" as="geometry">
            <mxPoint x="1624" y="538.5700000000002" as="sourcePoint" />
            <mxPoint x="1114" y="538.5700000000002" as="targetPoint" />
          </mxGeometry>
        </mxCell>
        <mxCell id="92wOmejcZKaFyFq-x9RZ-180" value="" style="endArrow=none;html=1;exitX=0.5;exitY=0;exitDx=0;exitDy=0;entryX=0.5;entryY=1;entryDx=0;entryDy=0;" parent="1" source="92wOmejcZKaFyFq-x9RZ-96" target="92wOmejcZKaFyFq-x9RZ-99" edge="1">
          <mxGeometry width="50" height="50" relative="1" as="geometry">
            <mxPoint x="934" y="380" as="sourcePoint" />
            <mxPoint x="904" y="310" as="targetPoint" />
          </mxGeometry>
        </mxCell>
        <mxCell id="92wOmejcZKaFyFq-x9RZ-181" value="" style="endArrow=none;html=1;exitX=0.5;exitY=0;exitDx=0;exitDy=0;entryX=0.5;entryY=1;entryDx=0;entryDy=0;" parent="1" source="92wOmejcZKaFyFq-x9RZ-96" target="92wOmejcZKaFyFq-x9RZ-97" edge="1">
          <mxGeometry width="50" height="50" relative="1" as="geometry">
            <mxPoint x="934" y="380" as="sourcePoint" />
            <mxPoint x="844" y="310" as="targetPoint" />
          </mxGeometry>
        </mxCell>
        <mxCell id="92wOmejcZKaFyFq-x9RZ-182" value="" style="endArrow=none;html=1;exitX=0.5;exitY=0;exitDx=0;exitDy=0;entryX=0.5;entryY=1;entryDx=0;entryDy=0;" parent="1" source="92wOmejcZKaFyFq-x9RZ-96" target="92wOmejcZKaFyFq-x9RZ-123" edge="1">
          <mxGeometry width="50" height="50" relative="1" as="geometry">
            <mxPoint x="934" y="380" as="sourcePoint" />
            <mxPoint x="784" y="310" as="targetPoint" />
          </mxGeometry>
        </mxCell>
        <mxCell id="92wOmejcZKaFyFq-x9RZ-183" value="" style="endArrow=none;html=1;entryX=0.5;entryY=1;entryDx=0;entryDy=0;exitX=0.5;exitY=0;exitDx=0;exitDy=0;" parent="1" source="92wOmejcZKaFyFq-x9RZ-96" target="92wOmejcZKaFyFq-x9RZ-101" edge="1">
          <mxGeometry width="50" height="50" relative="1" as="geometry">
            <mxPoint x="964" y="340" as="sourcePoint" />
            <mxPoint x="724" y="310" as="targetPoint" />
          </mxGeometry>
        </mxCell>
        <mxCell id="92wOmejcZKaFyFq-x9RZ-184" value="" style="endArrow=none;html=1;entryX=0.5;entryY=1;entryDx=0;entryDy=0;exitX=0.5;exitY=0;exitDx=0;exitDy=0;" parent="1" source="92wOmejcZKaFyFq-x9RZ-96" target="92wOmejcZKaFyFq-x9RZ-102" edge="1">
          <mxGeometry width="50" height="50" relative="1" as="geometry">
            <mxPoint x="934" y="380" as="sourcePoint" />
            <mxPoint x="664" y="310" as="targetPoint" />
          </mxGeometry>
        </mxCell>
        <mxCell id="92wOmejcZKaFyFq-x9RZ-186" value="" style="endArrow=none;html=1;entryX=0.5;entryY=1;entryDx=0;entryDy=0;exitX=0.5;exitY=0;exitDx=0;exitDy=0;" parent="1" source="92wOmejcZKaFyFq-x9RZ-96" target="92wOmejcZKaFyFq-x9RZ-100" edge="1">
          <mxGeometry width="50" height="50" relative="1" as="geometry">
            <mxPoint x="1054" y="360" as="sourcePoint" />
            <mxPoint x="964" y="310" as="targetPoint" />
          </mxGeometry>
        </mxCell>
        <mxCell id="92wOmejcZKaFyFq-x9RZ-187" value="" style="endArrow=none;html=1;entryX=0.5;entryY=1;entryDx=0;entryDy=0;exitX=0.5;exitY=0;exitDx=0;exitDy=0;" parent="1" source="92wOmejcZKaFyFq-x9RZ-96" target="92wOmejcZKaFyFq-x9RZ-104" edge="1">
          <mxGeometry width="50" height="50" relative="1" as="geometry">
            <mxPoint x="1014" y="370" as="sourcePoint" />
            <mxPoint x="1024" y="310" as="targetPoint" />
          </mxGeometry>
        </mxCell>
        <mxCell id="92wOmejcZKaFyFq-x9RZ-188" value="" style="endArrow=none;html=1;entryX=0.5;entryY=1;entryDx=0;entryDy=0;exitX=0.5;exitY=0;exitDx=0;exitDy=0;" parent="1" source="92wOmejcZKaFyFq-x9RZ-96" target="92wOmejcZKaFyFq-x9RZ-105" edge="1">
          <mxGeometry width="50" height="50" relative="1" as="geometry">
            <mxPoint x="924" y="340" as="sourcePoint" />
            <mxPoint x="1084" y="310" as="targetPoint" />
          </mxGeometry>
        </mxCell>
        <mxCell id="92wOmejcZKaFyFq-x9RZ-189" value="" style="endArrow=none;html=1;entryX=0.5;entryY=1;entryDx=0;entryDy=0;exitX=0.5;exitY=0;exitDx=0;exitDy=0;" parent="1" source="92wOmejcZKaFyFq-x9RZ-96" target="92wOmejcZKaFyFq-x9RZ-106" edge="1">
          <mxGeometry width="50" height="50" relative="1" as="geometry">
            <mxPoint x="934" y="320" as="sourcePoint" />
            <mxPoint x="1144" y="310" as="targetPoint" />
          </mxGeometry>
        </mxCell>
        <mxCell id="92wOmejcZKaFyFq-x9RZ-190" value="" style="endArrow=none;html=1;entryX=0.5;entryY=1;entryDx=0;entryDy=0;exitX=0.5;exitY=0;exitDx=0;exitDy=0;" parent="1" source="92wOmejcZKaFyFq-x9RZ-96" target="92wOmejcZKaFyFq-x9RZ-124" edge="1">
          <mxGeometry width="50" height="50" relative="1" as="geometry">
            <mxPoint x="924" y="340" as="sourcePoint" />
            <mxPoint x="1204" y="310" as="targetPoint" />
          </mxGeometry>
        </mxCell>
        <mxCell id="92wOmejcZKaFyFq-x9RZ-208" value="" style="endArrow=none;html=1;entryX=0.5;entryY=0;entryDx=0;entryDy=0;exitX=0.5;exitY=1;exitDx=0;exitDy=0;" parent="1" source="92wOmejcZKaFyFq-x9RZ-132" target="92wOmejcZKaFyFq-x9RZ-131" edge="1">
          <mxGeometry width="50" height="50" relative="1" as="geometry">
            <mxPoint x="1373.9999999999995" y="515" as="sourcePoint" />
            <mxPoint x="1703.9999999999995" y="445" as="targetPoint" />
          </mxGeometry>
        </mxCell>
        <mxCell id="92wOmejcZKaFyFq-x9RZ-209" value="" style="endArrow=none;html=1;exitX=0.5;exitY=1;exitDx=0;exitDy=0;entryX=0.5;entryY=0;entryDx=0;entryDy=0;" parent="1" source="92wOmejcZKaFyFq-x9RZ-133" target="92wOmejcZKaFyFq-x9RZ-131" edge="1">
          <mxGeometry width="50" height="50" relative="1" as="geometry">
            <mxPoint x="1444" y="310" as="sourcePoint" />
            <mxPoint x="1594" y="350" as="targetPoint" />
          </mxGeometry>
        </mxCell>
        <mxCell id="92wOmejcZKaFyFq-x9RZ-211" value="" style="endArrow=none;html=1;exitX=0.5;exitY=1;exitDx=0;exitDy=0;entryX=0.5;entryY=0;entryDx=0;entryDy=0;" parent="1" source="92wOmejcZKaFyFq-x9RZ-135" target="92wOmejcZKaFyFq-x9RZ-131" edge="1">
          <mxGeometry width="50" height="50" relative="1" as="geometry">
            <mxPoint x="1564" y="310" as="sourcePoint" />
            <mxPoint x="1594" y="370" as="targetPoint" />
          </mxGeometry>
        </mxCell>
        <mxCell id="92wOmejcZKaFyFq-x9RZ-214" value="" style="endArrow=none;html=1;exitX=0;exitY=0.5;exitDx=0;exitDy=0;entryX=1;entryY=0.5;entryDx=0;entryDy=0;" parent="1" source="92wOmejcZKaFyFq-x9RZ-140" target="92wOmejcZKaFyFq-x9RZ-138" edge="1">
          <mxGeometry width="50" height="50" relative="1" as="geometry">
            <mxPoint x="1694" y="310" as="sourcePoint" />
            <mxPoint x="1544" y="370" as="targetPoint" />
          </mxGeometry>
        </mxCell>
        <mxCell id="92wOmejcZKaFyFq-x9RZ-215" value="" style="endArrow=none;html=1;exitX=0;exitY=0.5;exitDx=0;exitDy=0;entryX=1;entryY=0.5;entryDx=0;entryDy=0;" parent="1" source="92wOmejcZKaFyFq-x9RZ-141" target="92wOmejcZKaFyFq-x9RZ-138" edge="1">
          <mxGeometry width="50" height="50" relative="1" as="geometry">
            <mxPoint x="1964.0000000000218" y="290" as="sourcePoint" />
            <mxPoint x="1844" y="410" as="targetPoint" />
          </mxGeometry>
        </mxCell>
        <mxCell id="92wOmejcZKaFyFq-x9RZ-216" value="" style="endArrow=none;html=1;exitX=0;exitY=0.5;exitDx=0;exitDy=0;entryX=1;entryY=0.5;entryDx=0;entryDy=0;" parent="1" source="92wOmejcZKaFyFq-x9RZ-142" target="92wOmejcZKaFyFq-x9RZ-138" edge="1">
          <mxGeometry width="50" height="50" relative="1" as="geometry">
            <mxPoint x="1964.0000000000218" y="330" as="sourcePoint" />
            <mxPoint x="1844" y="410" as="targetPoint" />
          </mxGeometry>
        </mxCell>
        <mxCell id="92wOmejcZKaFyFq-x9RZ-217" value="" style="endArrow=none;html=1;exitX=0;exitY=0.5;exitDx=0;exitDy=0;entryX=1;entryY=0.5;entryDx=0;entryDy=0;" parent="1" source="92wOmejcZKaFyFq-x9RZ-143" target="92wOmejcZKaFyFq-x9RZ-138" edge="1">
          <mxGeometry width="50" height="50" relative="1" as="geometry">
            <mxPoint x="1964.0000000000218" y="370" as="sourcePoint" />
            <mxPoint x="1844" y="410" as="targetPoint" />
          </mxGeometry>
        </mxCell>
        <mxCell id="92wOmejcZKaFyFq-x9RZ-218" value="" style="endArrow=none;html=1;exitX=0;exitY=0.5;exitDx=0;exitDy=0;entryX=1;entryY=0.5;entryDx=0;entryDy=0;" parent="1" source="92wOmejcZKaFyFq-x9RZ-144" target="92wOmejcZKaFyFq-x9RZ-138" edge="1">
          <mxGeometry width="50" height="50" relative="1" as="geometry">
            <mxPoint x="1964.0000000000218" y="410" as="sourcePoint" />
            <mxPoint x="1844" y="410" as="targetPoint" />
          </mxGeometry>
        </mxCell>
        <mxCell id="92wOmejcZKaFyFq-x9RZ-219" value="" style="endArrow=none;html=1;exitX=0;exitY=0.5;exitDx=0;exitDy=0;entryX=1;entryY=0.5;entryDx=0;entryDy=0;" parent="1" source="92wOmejcZKaFyFq-x9RZ-145" target="92wOmejcZKaFyFq-x9RZ-138" edge="1">
          <mxGeometry width="50" height="50" relative="1" as="geometry">
            <mxPoint x="1964.0000000000218" y="450" as="sourcePoint" />
            <mxPoint x="1844" y="410" as="targetPoint" />
          </mxGeometry>
        </mxCell>
        <mxCell id="92wOmejcZKaFyFq-x9RZ-220" value="" style="endArrow=none;html=1;exitX=0;exitY=0.5;exitDx=0;exitDy=0;entryX=1;entryY=0.5;entryDx=0;entryDy=0;" parent="1" source="92wOmejcZKaFyFq-x9RZ-146" target="92wOmejcZKaFyFq-x9RZ-138" edge="1">
          <mxGeometry width="50" height="50" relative="1" as="geometry">
            <mxPoint x="1964.0000000000218" y="490" as="sourcePoint" />
            <mxPoint x="1844" y="410" as="targetPoint" />
          </mxGeometry>
        </mxCell>
        <mxCell id="92wOmejcZKaFyFq-x9RZ-230" value="N" style="text;html=1;strokeColor=none;fillColor=none;align=center;verticalAlign=middle;whiteSpace=wrap;rounded=0;" parent="1" vertex="1">
          <mxGeometry x="510" y="360" width="40" height="20" as="geometry" />
        </mxCell>
        <mxCell id="92wOmejcZKaFyFq-x9RZ-231" value="M" style="text;html=1;strokeColor=none;fillColor=none;align=center;verticalAlign=middle;whiteSpace=wrap;rounded=0;" parent="1" vertex="1">
          <mxGeometry x="570" y="360" width="40" height="20" as="geometry" />
        </mxCell>
        <mxCell id="92wOmejcZKaFyFq-x9RZ-233" value="N" style="text;html=1;strokeColor=none;fillColor=none;align=center;verticalAlign=middle;whiteSpace=wrap;rounded=0;" parent="1" vertex="1">
          <mxGeometry x="1524" y="420" width="40" height="20" as="geometry" />
        </mxCell>
        <mxCell id="92wOmejcZKaFyFq-x9RZ-234" value="M" style="text;html=1;strokeColor=none;fillColor=none;align=center;verticalAlign=middle;whiteSpace=wrap;rounded=0;" parent="1" vertex="1">
          <mxGeometry x="1464" y="420" width="40" height="20" as="geometry" />
        </mxCell>
        <mxCell id="92wOmejcZKaFyFq-x9RZ-235" value="N" style="text;html=1;strokeColor=none;fillColor=none;align=center;verticalAlign=middle;whiteSpace=wrap;rounded=0;" parent="1" vertex="1">
          <mxGeometry x="1354" y="890" width="40" height="20" as="geometry" />
        </mxCell>
        <mxCell id="92wOmejcZKaFyFq-x9RZ-236" value="M" style="text;html=1;strokeColor=none;fillColor=none;align=center;verticalAlign=middle;whiteSpace=wrap;rounded=0;" parent="1" vertex="1">
          <mxGeometry x="1294" y="890" width="40" height="20" as="geometry" />
        </mxCell>
        <mxCell id="qBeYKjfg92IqrD_sqGgL-1" value="&lt;span style=&quot;font-size: 11px&quot;&gt;로그인&lt;br&gt;종류&lt;/span&gt;" style="ellipse;whiteSpace=wrap;html=1;fillColor=#dae8fc;strokeColor=#6c8ebf;" parent="1" vertex="1">
          <mxGeometry x="654" y="260" width="60" height="40" as="geometry" />
        </mxCell>
        <mxCell id="qBeYKjfg92IqrD_sqGgL-3" value="" style="endArrow=none;html=1;exitX=0.5;exitY=1;exitDx=0;exitDy=0;entryX=0.5;entryY=0;entryDx=0;entryDy=0;" parent="1" source="qBeYKjfg92IqrD_sqGgL-1" target="92wOmejcZKaFyFq-x9RZ-96" edge="1">
          <mxGeometry width="50" height="50" relative="1" as="geometry">
            <mxPoint x="1064" y="490" as="sourcePoint" />
            <mxPoint x="1114" y="440" as="targetPoint" />
          </mxGeometry>
        </mxCell>
        <mxCell id="qBeYKjfg92IqrD_sqGgL-4" value="생년월일" style="ellipse;whiteSpace=wrap;html=1;" parent="1" vertex="1">
          <mxGeometry x="954" y="260" width="60" height="40" as="geometry" />
        </mxCell>
        <mxCell id="qBeYKjfg92IqrD_sqGgL-5" value="" style="endArrow=none;html=1;exitX=0.5;exitY=0;exitDx=0;exitDy=0;entryX=0.5;entryY=1;entryDx=0;entryDy=0;" parent="1" source="92wOmejcZKaFyFq-x9RZ-96" target="qBeYKjfg92IqrD_sqGgL-4" edge="1">
          <mxGeometry width="50" height="50" relative="1" as="geometry">
            <mxPoint x="934" y="380" as="sourcePoint" />
            <mxPoint x="904" y="310" as="targetPoint" />
          </mxGeometry>
        </mxCell>
        <mxCell id="qBeYKjfg92IqrD_sqGgL-6" value="찜" style="ellipse;whiteSpace=wrap;html=1;" parent="1" vertex="1">
          <mxGeometry x="1954" y="520" width="60" height="40" as="geometry" />
        </mxCell>
        <mxCell id="qBeYKjfg92IqrD_sqGgL-7" value="장바구니" style="rhombus;whiteSpace=wrap;html=1;" parent="1" vertex="1">
          <mxGeometry x="1304" y="490" width="80" height="80" as="geometry" />
        </mxCell>
        <mxCell id="qBeYKjfg92IqrD_sqGgL-8" value="&lt;u&gt;장바구니번호&lt;/u&gt;" style="ellipse;whiteSpace=wrap;html=1;" parent="1" vertex="1">
          <mxGeometry x="1254" y="610" width="60" height="40" as="geometry" />
        </mxCell>
        <mxCell id="qBeYKjfg92IqrD_sqGgL-10" value="회원ID" style="ellipse;whiteSpace=wrap;html=1;fillColor=#dae8fc;strokeColor=#6c8ebf;" parent="1" vertex="1">
          <mxGeometry x="1374" y="610" width="60" height="40" as="geometry" />
        </mxCell>
        <mxCell id="qBeYKjfg92IqrD_sqGgL-12" value="일자" style="ellipse;whiteSpace=wrap;html=1;" parent="1" vertex="1">
          <mxGeometry x="1314" y="610" width="60" height="40" as="geometry" />
        </mxCell>
        <mxCell id="qBeYKjfg92IqrD_sqGgL-15" value="" style="endArrow=none;html=1;entryX=0.5;entryY=1;entryDx=0;entryDy=0;exitX=0.5;exitY=0;exitDx=0;exitDy=0;" parent="1" source="qBeYKjfg92IqrD_sqGgL-10" target="qBeYKjfg92IqrD_sqGgL-7" edge="1">
          <mxGeometry width="50" height="50" relative="1" as="geometry">
            <mxPoint x="1354" y="620" as="sourcePoint" />
            <mxPoint x="1354" y="580" as="targetPoint" />
          </mxGeometry>
        </mxCell>
        <mxCell id="qBeYKjfg92IqrD_sqGgL-17" value="" style="endArrow=none;html=1;entryX=0.5;entryY=1;entryDx=0;entryDy=0;exitX=0.5;exitY=0;exitDx=0;exitDy=0;" parent="1" source="qBeYKjfg92IqrD_sqGgL-12" target="qBeYKjfg92IqrD_sqGgL-7" edge="1">
          <mxGeometry width="50" height="50" relative="1" as="geometry">
            <mxPoint x="1474" y="620" as="sourcePoint" />
            <mxPoint x="1354" y="580" as="targetPoint" />
          </mxGeometry>
        </mxCell>
        <mxCell id="qBeYKjfg92IqrD_sqGgL-18" value="" style="endArrow=none;html=1;entryX=0.5;entryY=1;entryDx=0;entryDy=0;exitX=0.5;exitY=0;exitDx=0;exitDy=0;" parent="1" source="qBeYKjfg92IqrD_sqGgL-8" target="qBeYKjfg92IqrD_sqGgL-7" edge="1">
          <mxGeometry width="50" height="50" relative="1" as="geometry">
            <mxPoint x="1294" y="620" as="sourcePoint" />
            <mxPoint x="1354" y="580" as="targetPoint" />
          </mxGeometry>
        </mxCell>
        <mxCell id="qBeYKjfg92IqrD_sqGgL-19" value="" style="endArrow=none;html=1;exitX=1;exitY=0.5;exitDx=0;exitDy=0;entryX=0.25;entryY=1;entryDx=0;entryDy=0;" parent="1" source="qBeYKjfg92IqrD_sqGgL-7" target="92wOmejcZKaFyFq-x9RZ-138" edge="1">
          <mxGeometry width="50" height="50" relative="1" as="geometry">
            <mxPoint x="1498" y="530" as="sourcePoint" />
            <mxPoint x="1548" y="480" as="targetPoint" />
            <Array as="points">
              <mxPoint x="1744" y="530" />
            </Array>
          </mxGeometry>
        </mxCell>
        <mxCell id="qBeYKjfg92IqrD_sqGgL-21" value="" style="endArrow=none;html=1;exitX=0;exitY=0.5;exitDx=0;exitDy=0;entryX=1;entryY=0.5;entryDx=0;entryDy=0;" parent="1" source="qBeYKjfg92IqrD_sqGgL-6" target="92wOmejcZKaFyFq-x9RZ-138" edge="1">
          <mxGeometry width="50" height="50" relative="1" as="geometry">
            <mxPoint x="1944" y="560" as="sourcePoint" />
            <mxPoint x="1824" y="440" as="targetPoint" />
          </mxGeometry>
        </mxCell>
        <mxCell id="qBeYKjfg92IqrD_sqGgL-22" value="" style="endArrow=none;html=1;entryX=0;entryY=0.5;entryDx=0;entryDy=0;exitX=0.75;exitY=1;exitDx=0;exitDy=0;" parent="1" source="92wOmejcZKaFyFq-x9RZ-96" target="qBeYKjfg92IqrD_sqGgL-7" edge="1">
          <mxGeometry width="50" height="50" relative="1" as="geometry">
            <mxPoint x="1134" y="480" as="sourcePoint" />
            <mxPoint x="1184" y="430" as="targetPoint" />
            <Array as="points">
              <mxPoint x="954" y="530" />
            </Array>
          </mxGeometry>
        </mxCell>
        <mxCell id="qBeYKjfg92IqrD_sqGgL-26" value="" style="endArrow=none;html=1;exitX=0.5;exitY=1;exitDx=0;exitDy=0;entryX=0.5;entryY=0;entryDx=0;entryDy=0;" parent="1" source="92wOmejcZKaFyFq-x9RZ-136" target="92wOmejcZKaFyFq-x9RZ-131" edge="1">
          <mxGeometry width="50" height="50" relative="1" as="geometry">
            <mxPoint x="1644" y="300" as="sourcePoint" />
            <mxPoint x="1593.9999999999995" y="370" as="targetPoint" />
          </mxGeometry>
        </mxCell>
        <mxCell id="6GFqDLH5qVLX8Q6M01xA-3" value="" style="endArrow=none;html=1;entryX=0;entryY=0.5;entryDx=0;entryDy=0;exitX=1;exitY=0.5;exitDx=0;exitDy=0;" parent="1" source="92wOmejcZKaFyFq-x9RZ-128" target="92wOmejcZKaFyFq-x9RZ-96" edge="1">
          <mxGeometry width="50" height="50" relative="1" as="geometry">
            <mxPoint x="510" y="560" as="sourcePoint" />
            <mxPoint x="560" y="510" as="targetPoint" />
          </mxGeometry>
        </mxCell>
        <mxCell id="6GFqDLH5qVLX8Q6M01xA-5" value="공급일자" style="ellipse;whiteSpace=wrap;html=1;" parent="1" vertex="1">
          <mxGeometry x="1284" y="1010" width="60" height="40" as="geometry" />
        </mxCell>
        <mxCell id="PA8D49zJfe4PAK9nb-3q-2" value="&lt;h1&gt;목록 상세정보&lt;/h1&gt;&lt;p&gt;&lt;font color=&quot;#6c8ebf&quot;&gt;목록번호&lt;/font&gt;&lt;/p&gt;&lt;p&gt;&lt;font color=&quot;#6c8ebf&quot;&gt;상품번호&lt;/font&gt;&lt;/p&gt;&lt;p&gt;색상&lt;/p&gt;&lt;p&gt;사이즈&lt;/p&gt;&lt;p&gt;주문수량&lt;/p&gt;&lt;p&gt;상품금액&lt;/p&gt;" style="whiteSpace=wrap;html=1;aspect=fixed;" vertex="1" parent="1">
          <mxGeometry x="1244" y="670" width="200" height="200" as="geometry" />
        </mxCell>
        <mxCell id="PA8D49zJfe4PAK9nb-3q-3" value="" style="endArrow=none;html=1;entryX=0.5;entryY=1;entryDx=0;entryDy=0;exitX=0.5;exitY=0;exitDx=0;exitDy=0;" edge="1" parent="1" source="6GFqDLH5qVLX8Q6M01xA-5" target="92wOmejcZKaFyFq-x9RZ-139">
          <mxGeometry width="50" height="50" relative="1" as="geometry">
            <mxPoint x="1210" y="990" as="sourcePoint" />
            <mxPoint x="1270" y="950" as="targetPoint" />
          </mxGeometry>
        </mxCell>
        <mxCell id="PA8D49zJfe4PAK9nb-3q-4" value="" style="endArrow=none;html=1;entryX=0.5;entryY=1;entryDx=0;entryDy=0;exitX=0.5;exitY=0;exitDx=0;exitDy=0;" edge="1" parent="1" source="92wOmejcZKaFyFq-x9RZ-147" target="92wOmejcZKaFyFq-x9RZ-139">
          <mxGeometry width="50" height="50" relative="1" as="geometry">
            <mxPoint x="1324" y="1020" as="sourcePoint" />
            <mxPoint x="1354" y="980" as="targetPoint" />
          </mxGeometry>
        </mxCell>
        <mxCell id="PA8D49zJfe4PAK9nb-3q-5" value="N" style="text;html=1;strokeColor=none;fillColor=none;align=center;verticalAlign=middle;whiteSpace=wrap;rounded=0;" vertex="1" parent="1">
          <mxGeometry x="1354" y="490" width="40" height="20" as="geometry" />
        </mxCell>
        <mxCell id="PA8D49zJfe4PAK9nb-3q-6" value="M" style="text;html=1;strokeColor=none;fillColor=none;align=center;verticalAlign=middle;whiteSpace=wrap;rounded=0;" vertex="1" parent="1">
          <mxGeometry x="1294" y="490" width="40" height="20" as="geometry" />
        </mxCell>
        <mxCell id="PA8D49zJfe4PAK9nb-3q-7" value="" style="endArrow=none;html=1;entryX=0.25;entryY=1;entryDx=0;entryDy=0;exitX=0;exitY=0.5;exitDx=0;exitDy=0;" edge="1" parent="1" source="92wOmejcZKaFyFq-x9RZ-139" target="92wOmejcZKaFyFq-x9RZ-96">
          <mxGeometry width="50" height="50" relative="1" as="geometry">
            <mxPoint x="1170" y="670" as="sourcePoint" />
            <mxPoint x="1220" y="620" as="targetPoint" />
            <Array as="points">
              <mxPoint x="894" y="930" />
            </Array>
          </mxGeometry>
        </mxCell>
        <mxCell id="PA8D49zJfe4PAK9nb-3q-8" value="" style="endArrow=none;html=1;entryX=1;entryY=0.5;entryDx=0;entryDy=0;exitX=0.75;exitY=1;exitDx=0;exitDy=0;" edge="1" parent="1" source="92wOmejcZKaFyFq-x9RZ-138" target="92wOmejcZKaFyFq-x9RZ-139">
          <mxGeometry width="50" height="50" relative="1" as="geometry">
            <mxPoint x="1838" y="560" as="sourcePoint" />
            <mxPoint x="1220" y="620" as="targetPoint" />
            <Array as="points">
              <mxPoint x="1804" y="930" />
            </Array>
          </mxGeometry>
        </mxCell>
        <mxCell id="PA8D49zJfe4PAK9nb-3q-10" value="&lt;h1&gt;배송&lt;/h1&gt;&lt;div&gt;&lt;font color=&quot;#6c8ebf&quot;&gt;회원ID&lt;/font&gt;&lt;/div&gt;&lt;div&gt;배송지&lt;/div&gt;" style="whiteSpace=wrap;html=1;aspect=fixed;" vertex="1" parent="1">
          <mxGeometry x="1464" y="130" width="110" height="110" as="geometry" />
        </mxCell>
        <mxCell id="PA8D49zJfe4PAK9nb-3q-11" value="&lt;h1&gt;회원등급&lt;/h1&gt;&lt;div&gt;&lt;u&gt;등급번호&lt;/u&gt;&lt;/div&gt;&lt;div&gt;등급이름&lt;/div&gt;" style="whiteSpace=wrap;html=1;aspect=fixed;" vertex="1" parent="1">
          <mxGeometry x="980" y="130" width="110" height="110" as="geometry" />
        </mxCell>
        <mxCell id="PA8D49zJfe4PAK9nb-3q-12" value="&lt;h1&gt;권한&lt;/h1&gt;&lt;div&gt;&lt;u&gt;권한번호&lt;/u&gt;&lt;/div&gt;&lt;div&gt;권한이름&lt;/div&gt;" style="whiteSpace=wrap;html=1;aspect=fixed;" vertex="1" parent="1">
          <mxGeometry x="870" y="130" width="110" height="110" as="geometry" />
        </mxCell>
        <mxCell id="PA8D49zJfe4PAK9nb-3q-13" value="&lt;h1&gt;로그인종류&lt;/h1&gt;&lt;div&gt;일반로그인&lt;/div&gt;&lt;div&gt;카카오로그인&lt;/div&gt;&lt;div&gt;네이버로그인&lt;/div&gt;&lt;div&gt;구글로그인&lt;/div&gt;&lt;div&gt;페이스북로그인&lt;/div&gt;" style="whiteSpace=wrap;html=1;aspect=fixed;" vertex="1" parent="1">
          <mxGeometry x="720" y="90" width="150" height="150" as="geometry" />
        </mxCell>
        <mxCell id="PA8D49zJfe4PAK9nb-3q-14" value="주문번호" style="ellipse;whiteSpace=wrap;html=1;fillColor=#dae8fc;strokeColor=#6c8ebf;" vertex="1" parent="1">
          <mxGeometry x="500" y="1010" width="60" height="40" as="geometry" />
        </mxCell>
        <mxCell id="PA8D49zJfe4PAK9nb-3q-15" value="스텝" style="ellipse;whiteSpace=wrap;html=1;" vertex="1" parent="1">
          <mxGeometry x="860" y="1010" width="60" height="40" as="geometry" />
        </mxCell>
        <mxCell id="PA8D49zJfe4PAK9nb-3q-16" value="인덴트" style="ellipse;whiteSpace=wrap;html=1;" vertex="1" parent="1">
          <mxGeometry x="920" y="1010" width="60" height="40" as="geometry" />
        </mxCell>
        <mxCell id="PA8D49zJfe4PAK9nb-3q-17" value="그룹" style="ellipse;whiteSpace=wrap;html=1;" vertex="1" parent="1">
          <mxGeometry x="980" y="1010" width="60" height="40" as="geometry" />
        </mxCell>
        <mxCell id="PA8D49zJfe4PAK9nb-3q-19" value="" style="endArrow=none;html=1;entryX=0.5;entryY=1;entryDx=0;entryDy=0;exitX=0.5;exitY=0;exitDx=0;exitDy=0;" edge="1" parent="1" source="92wOmejcZKaFyFq-x9RZ-129" target="92wOmejcZKaFyFq-x9RZ-128">
          <mxGeometry width="50" height="50" relative="1" as="geometry">
            <mxPoint x="630" y="570" as="sourcePoint" />
            <mxPoint x="680" y="520" as="targetPoint" />
          </mxGeometry>
        </mxCell>
        <mxCell id="PA8D49zJfe4PAK9nb-3q-20" value="&lt;h1&gt;게시판분류&lt;/h1&gt;&lt;div&gt;&lt;u&gt;게시판번호&lt;/u&gt;&lt;/div&gt;&lt;div&gt;게시판이름&lt;/div&gt;" style="whiteSpace=wrap;html=1;aspect=fixed;" vertex="1" parent="1">
          <mxGeometry x="310" y="770" width="130" height="130" as="geometry" />
        </mxCell>
        <mxCell id="PA8D49zJfe4PAK9nb-3q-21" value="" style="endArrow=none;html=1;entryX=0.5;entryY=1;entryDx=0;entryDy=0;exitX=0.5;exitY=0;exitDx=0;exitDy=0;" edge="1" parent="1" source="92wOmejcZKaFyFq-x9RZ-148" target="92wOmejcZKaFyFq-x9RZ-129">
          <mxGeometry width="50" height="50" relative="1" as="geometry">
            <mxPoint x="640" y="860" as="sourcePoint" />
            <mxPoint x="690" y="810" as="targetPoint" />
          </mxGeometry>
        </mxCell>
        <mxCell id="PA8D49zJfe4PAK9nb-3q-22" value="" style="endArrow=none;html=1;entryX=0.5;entryY=1;entryDx=0;entryDy=0;exitX=0.5;exitY=0;exitDx=0;exitDy=0;" edge="1" parent="1" source="92wOmejcZKaFyFq-x9RZ-149" target="92wOmejcZKaFyFq-x9RZ-129">
          <mxGeometry width="50" height="50" relative="1" as="geometry">
            <mxPoint x="120" y="1020" as="sourcePoint" />
            <mxPoint x="570" y="970" as="targetPoint" />
          </mxGeometry>
        </mxCell>
        <mxCell id="PA8D49zJfe4PAK9nb-3q-23" value="" style="endArrow=none;html=1;entryX=0.5;entryY=1;entryDx=0;entryDy=0;exitX=0.5;exitY=0;exitDx=0;exitDy=0;" edge="1" parent="1" source="92wOmejcZKaFyFq-x9RZ-150" target="92wOmejcZKaFyFq-x9RZ-129">
          <mxGeometry width="50" height="50" relative="1" as="geometry">
            <mxPoint x="240" y="960" as="sourcePoint" />
            <mxPoint x="570" y="970" as="targetPoint" />
          </mxGeometry>
        </mxCell>
        <mxCell id="PA8D49zJfe4PAK9nb-3q-24" value="" style="endArrow=none;html=1;entryX=0.5;entryY=1;entryDx=0;entryDy=0;exitX=0.5;exitY=0;exitDx=0;exitDy=0;" edge="1" parent="1" source="92wOmejcZKaFyFq-x9RZ-151" target="92wOmejcZKaFyFq-x9RZ-129">
          <mxGeometry width="50" height="50" relative="1" as="geometry">
            <mxPoint x="320" y="1130" as="sourcePoint" />
            <mxPoint x="570" y="970" as="targetPoint" />
          </mxGeometry>
        </mxCell>
        <mxCell id="PA8D49zJfe4PAK9nb-3q-25" value="" style="endArrow=none;html=1;entryX=0.5;entryY=1;entryDx=0;entryDy=0;exitX=0.5;exitY=0;exitDx=0;exitDy=0;" edge="1" parent="1" source="92wOmejcZKaFyFq-x9RZ-152" target="92wOmejcZKaFyFq-x9RZ-129">
          <mxGeometry width="50" height="50" relative="1" as="geometry">
            <mxPoint x="300" y="1020" as="sourcePoint" />
            <mxPoint x="570" y="970" as="targetPoint" />
          </mxGeometry>
        </mxCell>
        <mxCell id="PA8D49zJfe4PAK9nb-3q-26" value="" style="endArrow=none;html=1;entryX=0.5;entryY=1;entryDx=0;entryDy=0;exitX=0.5;exitY=0;exitDx=0;exitDy=0;" edge="1" parent="1" source="92wOmejcZKaFyFq-x9RZ-153" target="92wOmejcZKaFyFq-x9RZ-129">
          <mxGeometry width="50" height="50" relative="1" as="geometry">
            <mxPoint x="360" y="1020" as="sourcePoint" />
            <mxPoint x="570" y="970" as="targetPoint" />
          </mxGeometry>
        </mxCell>
        <mxCell id="PA8D49zJfe4PAK9nb-3q-27" value="" style="endArrow=none;html=1;entryX=0.5;entryY=1;entryDx=0;entryDy=0;exitX=0.5;exitY=0;exitDx=0;exitDy=0;" edge="1" parent="1" source="92wOmejcZKaFyFq-x9RZ-154" target="92wOmejcZKaFyFq-x9RZ-129">
          <mxGeometry width="50" height="50" relative="1" as="geometry">
            <mxPoint x="420" y="1020" as="sourcePoint" />
            <mxPoint x="570" y="970" as="targetPoint" />
          </mxGeometry>
        </mxCell>
        <mxCell id="PA8D49zJfe4PAK9nb-3q-28" value="" style="endArrow=none;html=1;entryX=0.5;entryY=1;entryDx=0;entryDy=0;exitX=0.5;exitY=0;exitDx=0;exitDy=0;" edge="1" parent="1" source="PA8D49zJfe4PAK9nb-3q-14" target="92wOmejcZKaFyFq-x9RZ-129">
          <mxGeometry width="50" height="50" relative="1" as="geometry">
            <mxPoint x="480" y="1020" as="sourcePoint" />
            <mxPoint x="570" y="970" as="targetPoint" />
          </mxGeometry>
        </mxCell>
        <mxCell id="PA8D49zJfe4PAK9nb-3q-29" value="" style="endArrow=none;html=1;entryX=0.5;entryY=1;entryDx=0;entryDy=0;exitX=0.5;exitY=0;exitDx=0;exitDy=0;" edge="1" parent="1" source="92wOmejcZKaFyFq-x9RZ-155" target="92wOmejcZKaFyFq-x9RZ-129">
          <mxGeometry width="50" height="50" relative="1" as="geometry">
            <mxPoint x="540" y="1020" as="sourcePoint" />
            <mxPoint x="570" y="970" as="targetPoint" />
          </mxGeometry>
        </mxCell>
        <mxCell id="PA8D49zJfe4PAK9nb-3q-30" value="" style="endArrow=none;html=1;entryX=0.5;entryY=1;entryDx=0;entryDy=0;exitX=0.5;exitY=0;exitDx=0;exitDy=0;" edge="1" parent="1" source="92wOmejcZKaFyFq-x9RZ-156" target="92wOmejcZKaFyFq-x9RZ-129">
          <mxGeometry width="50" height="50" relative="1" as="geometry">
            <mxPoint x="600" y="1020" as="sourcePoint" />
            <mxPoint x="570" y="970" as="targetPoint" />
          </mxGeometry>
        </mxCell>
        <mxCell id="PA8D49zJfe4PAK9nb-3q-31" value="" style="endArrow=none;html=1;entryX=0.5;entryY=1;entryDx=0;entryDy=0;exitX=0.5;exitY=0;exitDx=0;exitDy=0;" edge="1" parent="1" source="92wOmejcZKaFyFq-x9RZ-157" target="92wOmejcZKaFyFq-x9RZ-129">
          <mxGeometry width="50" height="50" relative="1" as="geometry">
            <mxPoint x="660" y="1020" as="sourcePoint" />
            <mxPoint x="570" y="970" as="targetPoint" />
          </mxGeometry>
        </mxCell>
        <mxCell id="PA8D49zJfe4PAK9nb-3q-32" value="" style="endArrow=none;html=1;entryX=0.5;entryY=1;entryDx=0;entryDy=0;exitX=0.5;exitY=0;exitDx=0;exitDy=0;" edge="1" parent="1" source="92wOmejcZKaFyFq-x9RZ-158" target="92wOmejcZKaFyFq-x9RZ-129">
          <mxGeometry width="50" height="50" relative="1" as="geometry">
            <mxPoint x="720" y="1020" as="sourcePoint" />
            <mxPoint x="570" y="970" as="targetPoint" />
          </mxGeometry>
        </mxCell>
        <mxCell id="PA8D49zJfe4PAK9nb-3q-33" value="" style="endArrow=none;html=1;exitX=0.5;exitY=0;exitDx=0;exitDy=0;entryX=0.5;entryY=1;entryDx=0;entryDy=0;" edge="1" parent="1" source="92wOmejcZKaFyFq-x9RZ-159" target="92wOmejcZKaFyFq-x9RZ-129">
          <mxGeometry width="50" height="50" relative="1" as="geometry">
            <mxPoint x="780" y="1020" as="sourcePoint" />
            <mxPoint x="680" y="940" as="targetPoint" />
          </mxGeometry>
        </mxCell>
        <mxCell id="PA8D49zJfe4PAK9nb-3q-34" value="" style="endArrow=none;html=1;exitX=0.5;exitY=0;exitDx=0;exitDy=0;" edge="1" parent="1" source="PA8D49zJfe4PAK9nb-3q-15">
          <mxGeometry width="50" height="50" relative="1" as="geometry">
            <mxPoint x="840" y="1020" as="sourcePoint" />
            <mxPoint x="560" y="960" as="targetPoint" />
          </mxGeometry>
        </mxCell>
        <mxCell id="PA8D49zJfe4PAK9nb-3q-35" value="" style="endArrow=none;html=1;exitX=0.5;exitY=0;exitDx=0;exitDy=0;entryX=0.5;entryY=1;entryDx=0;entryDy=0;" edge="1" parent="1" source="PA8D49zJfe4PAK9nb-3q-16" target="92wOmejcZKaFyFq-x9RZ-129">
          <mxGeometry width="50" height="50" relative="1" as="geometry">
            <mxPoint x="900" y="1020" as="sourcePoint" />
            <mxPoint x="570" y="970" as="targetPoint" />
          </mxGeometry>
        </mxCell>
        <mxCell id="PA8D49zJfe4PAK9nb-3q-36" value="" style="endArrow=none;html=1;exitX=0.5;exitY=0;exitDx=0;exitDy=0;entryX=0.463;entryY=1.018;entryDx=0;entryDy=0;entryPerimeter=0;" edge="1" parent="1" source="PA8D49zJfe4PAK9nb-3q-17" target="92wOmejcZKaFyFq-x9RZ-129">
          <mxGeometry width="50" height="50" relative="1" as="geometry">
            <mxPoint x="960" y="1020" as="sourcePoint" />
            <mxPoint x="570" y="970" as="targetPoint" />
          </mxGeometry>
        </mxCell>
        <mxCell id="PA8D49zJfe4PAK9nb-3q-37" value="&lt;h1&gt;상품 상세정보&lt;/h1&gt;&lt;p&gt;&lt;font color=&quot;#6c8ebf&quot;&gt;상품번호&lt;/font&gt;&lt;/p&gt;&lt;p&gt;색상&lt;/p&gt;&lt;p&gt;사이즈&lt;/p&gt;&lt;p&gt;재고&lt;/p&gt;" style="whiteSpace=wrap;html=1;aspect=fixed;" vertex="1" parent="1">
          <mxGeometry x="2060" y="240" width="170" height="170" as="geometry" />
        </mxCell>
        <mxCell id="PA8D49zJfe4PAK9nb-3q-38" value="&lt;h1&gt;사진&lt;/h1&gt;&lt;p&gt;&lt;u&gt;사진번호&lt;/u&gt;&lt;/p&gt;&lt;p&gt;사진명&lt;/p&gt;&lt;p&gt;사진경로&lt;/p&gt;" style="whiteSpace=wrap;html=1;aspect=fixed;" vertex="1" parent="1">
          <mxGeometry x="2060" y="440" width="140" height="140" as="geometry" />
        </mxCell>
      </root>
    </mxGraphModel>
  </diagram>
</mxfile>
